<?xml version="1.0" encoding="UTF-8" standalone="no"?>
<!DOCTYPE svg PUBLIC "-//W3C//DTD SVG 1.1//EN"
 "http://www.w3.org/Graphics/SVG/1.1/DTD/svg11.dtd">
<!-- Generated by graphviz version 2.38.0 (20140413.2041)
 -->
<!-- Title: controllers_diagram Pages: 1 -->
<svg width="411pt" height="383pt"
 viewBox="0.00 0.00 411.24 383.00" xmlns="http://www.w3.org/2000/svg" xmlns:xlink="http://www.w3.org/1999/xlink">
<g id="graph0" class="graph" transform="scale(1 1) rotate(0) translate(171.714 211.5)">
<title>controllers_diagram</title>
<polygon fill="white" stroke="none" points="-171.714,171.5 -171.714,-211.5 239.529,-211.5 239.529,171.5 -171.714,171.5"/>
<!-- _diagram_info -->
<g id="node1" class="node"><title>_diagram_info</title>
<text text-anchor="start" x="-103.688" y="-17.1" font-family="Times,serif" font-size="13.00">Controllers diagram</text>
<text text-anchor="start" x="-103.688" y="-4.1" font-family="Times,serif" font-size="13.00">Date: Mar 08 2015 &#45; 12:55</text>
<text text-anchor="start" x="-103.688" y="8.9" font-family="Times,serif" font-size="13.00">Migration version: 20150306205015</text>
<text text-anchor="start" x="-103.688" y="21.9" font-family="Times,serif" font-size="13.00">Generated by RailRoady 1.3.0</text>
<text text-anchor="start" x="-103.688" y="34.9" font-family="Times,serif" font-size="13.00">http://railroady.prestonlee.com</text>
</g>
<!-- ApplicationController -->
<g id="node2" class="node"><title>ApplicationController</title>
<path fill="none" stroke="black" d="M-99.8208,-113C-99.8208,-113 15.8208,-113 15.8208,-113 21.8208,-113 27.8208,-119 27.8208,-125 27.8208,-125 27.8208,-195 27.8208,-195 27.8208,-201 21.8208,-207 15.8208,-207 15.8208,-207 -99.8208,-207 -99.8208,-207 -105.821,-207 -111.821,-201 -111.821,-195 -111.821,-195 -111.821,-125 -111.821,-125 -111.821,-119 -105.821,-113 -99.8208,-113"/>
<text text-anchor="middle" x="-42" y="-191.8" font-family="Times,serif" font-size="14.00">ApplicationController</text>
<polyline fill="none" stroke="black" points="-111.821,-185 27.8208,-185 "/>
<polyline fill="none" stroke="black" points="-111.821,-161 27.8208,-161 "/>
<polyline fill="none" stroke="black" points="-111.821,-137 27.8208,-137 "/>
</g>
<!-- ListingsController -->
<g id="node3" class="node"><title>ListingsController</title>
<path fill="none" stroke="black" d="M67.6689,-57C67.6689,-57 162.331,-57 162.331,-57 168.331,-57 174.331,-63 174.331,-69 174.331,-69 174.331,-193 174.331,-193 174.331,-199 168.331,-205 162.331,-205 162.331,-205 67.6689,-205 67.6689,-205 61.6689,-205 55.6689,-199 55.6689,-193 55.6689,-193 55.6689,-69 55.6689,-69 55.6689,-63 61.6689,-57 67.6689,-57"/>
<text text-anchor="middle" x="115" y="-189.8" font-family="Times,serif" font-size="14.00">ListingsController</text>
<polyline fill="none" stroke="black" points="55.6689,-183 174.331,-183 "/>
<text text-anchor="start" x="63.6689" y="-167.8" font-family="Times,serif" font-size="14.00">create</text>
<text text-anchor="start" x="63.6689" y="-153.8" font-family="Times,serif" font-size="14.00">destroy</text>
<text text-anchor="start" x="63.6689" y="-139.8" font-family="Times,serif" font-size="14.00">index</text>
<text text-anchor="start" x="63.6689" y="-125.8" font-family="Times,serif" font-size="14.00">show</text>
<text text-anchor="start" x="63.6689" y="-111.8" font-family="Times,serif" font-size="14.00">update</text>
<polyline fill="none" stroke="black" points="55.6689,-105 174.331,-105 "/>
<polyline fill="none" stroke="black" points="55.6689,-81 174.331,-81 "/>
</g>
<!-- OffersController -->
<g id="node4" class="node"><title>OffersController</title>
<path fill="none" stroke="black" d="M138.471,125C138.471,125 223.529,125 223.529,125 229.529,125 235.529,119 235.529,113 235.529,113 235.529,31 235.529,31 235.529,25 229.529,19 223.529,19 223.529,19 138.471,19 138.471,19 132.471,19 126.471,25 126.471,31 126.471,31 126.471,113 126.471,113 126.471,119 132.471,125 138.471,125"/>
<text text-anchor="middle" x="181" y="34.2" font-family="Times,serif" font-size="14.00">OffersController</text>
<polyline fill="none" stroke="black" points="126.471,41 235.529,41 "/>
<text text-anchor="start" x="134.471" y="56.2" font-family="Times,serif" font-size="14.00">create</text>
<text text-anchor="start" x="134.471" y="70.2" font-family="Times,serif" font-size="14.00">index</text>
<polyline fill="none" stroke="black" points="126.471,77 235.529,77 "/>
<polyline fill="none" stroke="black" points="126.471,101 235.529,101 "/>
</g>
<!-- UsersController -->
<g id="node5" class="node"><title>UsersController</title>
<path fill="none" stroke="black" d="M-155.714,167C-155.714,167 -74.2861,167 -74.2861,167 -68.2861,167 -62.2861,161 -62.2861,155 -62.2861,155 -62.2861,85 -62.2861,85 -62.2861,79 -68.2861,73 -74.2861,73 -74.2861,73 -155.714,73 -155.714,73 -161.714,73 -167.714,79 -167.714,85 -167.714,85 -167.714,155 -167.714,155 -167.714,161 -161.714,167 -155.714,167"/>
<text text-anchor="middle" x="-115" y="88.2" font-family="Times,serif" font-size="14.00">UsersController</text>
<polyline fill="none" stroke="black" points="-167.714,95 -62.2861,95 "/>
<polyline fill="none" stroke="black" points="-167.714,119 -62.2861,119 "/>
<polyline fill="none" stroke="black" points="-167.714,143 -62.2861,143 "/>
</g>
</g>
</svg>
