<?xml version="1.0" encoding="UTF-8" standalone="no"?>
<!DOCTYPE svg PUBLIC "-//W3C//DTD SVG 1.1//EN"
 "http://www.w3.org/Graphics/SVG/1.1/DTD/svg11.dtd">
<!-- Generated by graphviz version 2.38.0 (20140413.2041)
 -->
<!-- Title: models_diagram Pages: 1 -->
<svg width="490pt" height="297pt"
 viewBox="0.00 0.00 489.75 297.00" xmlns="http://www.w3.org/2000/svg" xmlns:xlink="http://www.w3.org/1999/xlink">
<g id="graph0" class="graph" transform="scale(1 1) rotate(0) translate(4 293)">
<title>models_diagram</title>
<polygon fill="white" stroke="none" points="-4,4 -4,-293 485.747,-293 485.747,4 -4,4"/>
<!-- _diagram_info -->
<g id="node1" class="node"><title>_diagram_info</title>
<text text-anchor="start" x="8" y="-274.6" font-family="Times,serif" font-size="13.00">Models diagram</text>
<text text-anchor="start" x="8" y="-261.6" font-family="Times,serif" font-size="13.00">Date: Mar 08 2015 &#45; 12:55</text>
<text text-anchor="start" x="8" y="-248.6" font-family="Times,serif" font-size="13.00">Migration version: 20150306205015</text>
<text text-anchor="start" x="8" y="-235.6" font-family="Times,serif" font-size="13.00">Generated by RailRoady 1.3.0</text>
<text text-anchor="start" x="8" y="-222.6" font-family="Times,serif" font-size="13.00">http://railroady.prestonlee.com</text>
</g>
<!-- Bid -->
<g id="node2" class="node"><title>Bid</title>
<ellipse fill="none" stroke="black" cx="403.688" cy="-162" rx="27" ry="18"/>
<text text-anchor="middle" x="403.688" y="-157.8" font-family="Times,serif" font-size="14.00">Bid</text>
</g>
<!-- Offer -->
<g id="node5" class="node"><title>Offer</title>
<ellipse fill="none" stroke="black" cx="330.688" cy="-90" rx="29.196" ry="18"/>
<text text-anchor="middle" x="330.688" y="-85.8" font-family="Times,serif" font-size="14.00">Offer</text>
</g>
<!-- Bid&#45;&gt;Offer -->
<g id="edge1" class="edge"><title>Bid&#45;&gt;Offer</title>
<path fill="none" stroke="#d32e0e" d="M379.23,-143.263C368.62,-133.975 356.565,-122.524 347.031,-112.711"/>
<ellipse fill="none" stroke="#d32e0e" cx="382.284" cy="-145.882" rx="4.00002" ry="4.00002"/>
<ellipse fill="#d32e0e" stroke="#d32e0e" cx="344.212" cy="-109.745" rx="4.00002" ry="4.00002"/>
</g>
<!-- Rating -->
<g id="node7" class="node"><title>Rating</title>
<ellipse fill="none" stroke="black" cx="411.688" cy="-90" rx="33.877" ry="18"/>
<text text-anchor="middle" x="411.688" y="-85.8" font-family="Times,serif" font-size="14.00">Rating</text>
</g>
<!-- Bid&#45;&gt;Rating -->
<g id="edge2" class="edge"><title>Bid&#45;&gt;Rating</title>
<path fill="none" stroke="#593658" d="M406.586,-135.64C407.24,-129.92 407.936,-123.828 408.597,-118.042"/>
<ellipse fill="none" stroke="#593658" cx="406.12" cy="-139.722" rx="4.00001" ry="4.00001"/>
<polygon fill="#593658" stroke="#593658" points="408.597,-118.04 414.204,-108.615 409.165,-113.072 409.733,-108.104 409.733,-108.104 409.733,-108.104 409.165,-113.072 405.262,-107.593 408.597,-118.04 408.597,-118.04"/>
</g>
<!-- Category -->
<g id="node3" class="node"><title>Category</title>
<ellipse fill="none" stroke="black" cx="267.688" cy="-252.5" rx="42.5456" ry="18"/>
<text text-anchor="middle" x="267.688" y="-248.3" font-family="Times,serif" font-size="14.00">Category</text>
</g>
<!-- Product -->
<g id="node6" class="node"><title>Product</title>
<ellipse fill="none" stroke="black" cx="276.688" cy="-162" rx="37.7352" ry="18"/>
<text text-anchor="middle" x="276.688" y="-157.8" font-family="Times,serif" font-size="14.00">Product</text>
</g>
<!-- Category&#45;&gt;Product -->
<g id="edge3" class="edge"><title>Category&#45;&gt;Product</title>
<path fill="none" stroke="#164c20" d="M270.262,-226.189C271.403,-214.971 272.747,-201.752 273.91,-190.311"/>
<ellipse fill="none" stroke="#164c20" cx="269.828" cy="-230.457" rx="4" ry="4"/>
<polygon fill="#164c20" stroke="#164c20" points="273.946,-189.96 279.435,-180.467 274.452,-184.986 274.958,-180.011 274.958,-180.011 274.958,-180.011 274.452,-184.986 270.481,-179.556 273.946,-189.96 273.946,-189.96"/>
</g>
<!-- Listing -->
<g id="node4" class="node"><title>Listing</title>
<ellipse fill="none" stroke="black" cx="330.688" cy="-18" rx="35.3303" ry="18"/>
<text text-anchor="middle" x="330.688" y="-13.8" font-family="Times,serif" font-size="14.00">Listing</text>
</g>
<!-- Listing&#45;&gt;Bid -->
<g id="edge4" class="edge"><title>Listing&#45;&gt;Bid</title>
<path fill="none" stroke="#41efed" d="M372.773,-24.9124C401.156,-31.3282 436.61,-44.6136 454.688,-72 469.844,-94.9614 448.134,-122.622 428.533,-140.948"/>
<ellipse fill="none" stroke="#41efed" cx="368.513" cy="-24.0235" rx="4.00001" ry="4.00001"/>
<polygon fill="#41efed" stroke="#41efed" points="428.398,-141.069 417.937,-144.359 424.664,-144.394 420.93,-147.72 420.93,-147.72 420.93,-147.72 424.664,-144.394 423.923,-151.08 428.398,-141.069 428.398,-141.069"/>
</g>
<!-- Listing&#45;&gt;Offer -->
<g id="edge5" class="edge"><title>Listing&#45;&gt;Offer</title>
<path fill="none" stroke="#2fb5a8" d="M337.183,-43.9262C337.484,-49.7349 337.518,-55.9482 337.285,-61.8479"/>
<ellipse fill="none" stroke="#2fb5a8" cx="336.86" cy="-39.7769" rx="4" ry="4"/>
<polygon fill="#2fb5a8" stroke="#2fb5a8" points="337.268,-62.0796 332.077,-71.7389 336.917,-67.0673 336.566,-72.055 336.566,-72.055 336.566,-72.055 336.917,-67.0673 341.055,-72.371 337.268,-62.0796 337.268,-62.0796"/>
</g>
<!-- Offer&#45;&gt;Bid -->
<g id="edge6" class="edge"><title>Offer&#45;&gt;Bid</title>
<path fill="none" stroke="#fbabd5" d="M355.936,-109.431C366.359,-118.597 378.063,-129.734 387.364,-139.31"/>
<ellipse fill="none" stroke="#fbabd5" cx="352.675" cy="-106.621" rx="4.00002" ry="4.00002"/>
<ellipse fill="#fbabd5" stroke="#fbabd5" cx="390.128" cy="-142.217" rx="4.00002" ry="4.00002"/>
</g>
<!-- Offer&#45;&gt;Listing -->
<g id="edge7" class="edge"><title>Offer&#45;&gt;Listing</title>
<path fill="none" stroke="#662bd7" d="M324.182,-63.8609C323.886,-58.032 323.859,-51.8058 324.101,-45.9045"/>
<ellipse fill="none" stroke="#662bd7" cx="324.504" cy="-68.0666" rx="4" ry="4"/>
<polygon fill="#662bd7" stroke="#662bd7" points="324.111,-45.7634 329.315,-36.1109 324.469,-40.7762 324.826,-35.789 324.826,-35.789 324.826,-35.789 324.469,-40.7762 320.338,-35.4671 324.111,-45.7634 324.111,-45.7634"/>
</g>
<!-- Product&#45;&gt;Listing -->
<g id="edge8" class="edge"><title>Product&#45;&gt;Listing</title>
<path fill="none" stroke="#c421d0" d="M278.258,-135.575C280.094,-117.295 284.072,-92.3797 292.688,-72 297.098,-61.5682 303.863,-51.1966 310.47,-42.4309"/>
<ellipse fill="none" stroke="#c421d0" cx="277.869" cy="-139.982" rx="4" ry="4"/>
<polygon fill="#c421d0" stroke="#c421d0" points="310.479,-42.4194 320.207,-37.3568 313.577,-38.4943 316.674,-34.5692 316.674,-34.5692 316.674,-34.5692 313.577,-38.4943 313.141,-31.7815 310.479,-42.4194 310.479,-42.4194"/>
</g>
<!-- Product&#45;&gt;Offer -->
<g id="edge9" class="edge"><title>Product&#45;&gt;Offer</title>
<path fill="none" stroke="#3af25e" d="M294.233,-138.257C299.96,-130.833 306.336,-122.567 312.135,-115.05"/>
<ellipse fill="none" stroke="#3af25e" cx="291.655" cy="-141.598" rx="4.00002" ry="4.00002"/>
<polygon fill="#3af25e" stroke="#3af25e" points="312.495,-114.584 322.166,-109.414 315.549,-110.625 318.603,-106.666 318.603,-106.666 318.603,-106.666 315.549,-110.625 315.04,-103.917 312.495,-114.584 312.495,-114.584"/>
</g>
<!-- User -->
<g id="node8" class="node"><title>User</title>
<ellipse fill="none" stroke="black" cx="355.688" cy="-252.5" rx="27" ry="18"/>
<text text-anchor="middle" x="355.688" y="-248.3" font-family="Times,serif" font-size="14.00">User</text>
</g>
<!-- User&#45;&gt;Listing -->
<g id="edge10" class="edge"><title>User&#45;&gt;Listing</title>
<path fill="none" stroke="#014288" d="M380.8,-234.723C425.65,-202.661 511.2,-130.655 470.688,-72 449.431,-41.2232 407.825,-28.3002 375.47,-22.8837"/>
<ellipse fill="none" stroke="#014288" cx="377.509" cy="-237.037" rx="4.00002" ry="4.00002"/>
<polygon fill="#014288" stroke="#014288" points="375.219,-22.8465 365.989,-16.9247 370.273,-22.1111 365.327,-21.3758 365.327,-21.3758 365.327,-21.3758 370.273,-22.1111 364.666,-25.8269 375.219,-22.8465 375.219,-22.8465"/>
</g>
<!-- User&#45;&gt;Offer -->
<g id="edge11" class="edge"><title>User&#45;&gt;Offer</title>
<path fill="none" stroke="#54a814" d="M351.728,-226.079C347.148,-196.675 339.637,-148.455 334.938,-118.284"/>
<ellipse fill="none" stroke="#54a814" cx="352.397" cy="-230.371" rx="4.00001" ry="4.00001"/>
<polygon fill="#54a814" stroke="#54a814" points="334.883,-117.934 337.79,-107.36 334.114,-112.993 333.344,-108.053 333.344,-108.053 333.344,-108.053 334.114,-112.993 328.898,-108.745 334.883,-117.934 334.883,-117.934"/>
</g>
<!-- User&#45;&gt;Product -->
<g id="edge12" class="edge"><title>User&#45;&gt;Product</title>
<path fill="none" stroke="#0b20d6" d="M336.584,-230.099C324.833,-216.935 309.763,-200.053 297.679,-186.515"/>
<ellipse fill="none" stroke="#0b20d6" cx="339.623" cy="-233.503" rx="4.00002" ry="4.00002"/>
<polygon fill="#0b20d6" stroke="#0b20d6" points="297.616,-186.445 294.314,-175.988 294.287,-182.715 290.957,-178.985 290.957,-178.985 290.957,-178.985 294.287,-182.715 287.6,-181.982 297.616,-186.445 297.616,-186.445"/>
</g>
</g>
</svg>
