<?xml version="1.0" encoding="UTF-8" standalone="no"?>
<!DOCTYPE svg PUBLIC "-//W3C//DTD SVG 1.1//EN"
 "http://www.w3.org/Graphics/SVG/1.1/DTD/svg11.dtd">
<!-- Generated by graphviz version 2.38.0 (20140413.2041)
 -->
<!-- Title: models_diagram Pages: 1 -->
<svg width="708pt" height="730pt"
 viewBox="0.00 0.00 707.51 730.00" xmlns="http://www.w3.org/2000/svg" xmlns:xlink="http://www.w3.org/1999/xlink">
<g id="graph0" class="graph" transform="scale(1 1) rotate(0) translate(4 726)">
<title>models_diagram</title>
<polygon fill="white" stroke="none" points="-4,4 -4,-726 703.505,-726 703.505,4 -4,4"/>
<!-- _diagram_info -->
<g id="node1" class="node"><title>_diagram_info</title>
<text text-anchor="start" x="8" y="-658.6" font-family="Times,serif" font-size="13.00">Models diagram</text>
<text text-anchor="start" x="8" y="-645.6" font-family="Times,serif" font-size="13.00">Date: Mar 08 2015 &#45; 12:55</text>
<text text-anchor="start" x="8" y="-632.6" font-family="Times,serif" font-size="13.00">Migration version: 20150306205015</text>
<text text-anchor="start" x="8" y="-619.6" font-family="Times,serif" font-size="13.00">Generated by RailRoady 1.3.0</text>
<text text-anchor="start" x="8" y="-606.6" font-family="Times,serif" font-size="13.00">http://railroady.prestonlee.com</text>
</g>
<!-- Bid -->
<g id="node2" class="node"><title>Bid</title>
<path fill="none" stroke="black" d="M474.182,-379.5C474.182,-379.5 583.193,-379.5 583.193,-379.5 589.193,-379.5 595.193,-385.5 595.193,-391.5 595.193,-391.5 595.193,-481.5 595.193,-481.5 595.193,-487.5 589.193,-493.5 583.193,-493.5 583.193,-493.5 474.182,-493.5 474.182,-493.5 468.182,-493.5 462.182,-487.5 462.182,-481.5 462.182,-481.5 462.182,-391.5 462.182,-391.5 462.182,-385.5 468.182,-379.5 474.182,-379.5"/>
<text text-anchor="middle" x="528.688" y="-478.3" font-family="Times,serif" font-size="14.00">Bid</text>
<polyline fill="none" stroke="black" points="462.182,-471.5 595.193,-471.5 "/>
<text text-anchor="start" x="470.182" y="-456.3" font-family="Times,serif" font-size="14.00">id :integer</text>
<text text-anchor="start" x="470.182" y="-442.3" font-family="Times,serif" font-size="14.00">purchased :boolean</text>
<text text-anchor="start" x="470.182" y="-428.3" font-family="Times,serif" font-size="14.00">listing_id :integer</text>
<text text-anchor="start" x="470.182" y="-414.3" font-family="Times,serif" font-size="14.00">offer_id :integer</text>
<text text-anchor="start" x="470.182" y="-400.3" font-family="Times,serif" font-size="14.00">created_at :datetime</text>
<text text-anchor="start" x="470.182" y="-386.3" font-family="Times,serif" font-size="14.00">updated_at :datetime</text>
</g>
<!-- Offer -->
<g id="node5" class="node"><title>Offer</title>
<path fill="none" stroke="black" d="M351.182,-186.5C351.182,-186.5 460.193,-186.5 460.193,-186.5 466.193,-186.5 472.193,-192.5 472.193,-198.5 472.193,-198.5 472.193,-302.5 472.193,-302.5 472.193,-308.5 466.193,-314.5 460.193,-314.5 460.193,-314.5 351.182,-314.5 351.182,-314.5 345.182,-314.5 339.182,-308.5 339.182,-302.5 339.182,-302.5 339.182,-198.5 339.182,-198.5 339.182,-192.5 345.182,-186.5 351.182,-186.5"/>
<text text-anchor="middle" x="405.688" y="-299.3" font-family="Times,serif" font-size="14.00">Offer</text>
<polyline fill="none" stroke="black" points="339.182,-292.5 472.193,-292.5 "/>
<text text-anchor="start" x="347.182" y="-277.3" font-family="Times,serif" font-size="14.00">id :integer</text>
<text text-anchor="start" x="347.182" y="-263.3" font-family="Times,serif" font-size="14.00">offer_price :float</text>
<text text-anchor="start" x="347.182" y="-249.3" font-family="Times,serif" font-size="14.00">user_id :integer</text>
<text text-anchor="start" x="347.182" y="-235.3" font-family="Times,serif" font-size="14.00">product_id :integer</text>
<text text-anchor="start" x="347.182" y="-221.3" font-family="Times,serif" font-size="14.00">bid_id :integer</text>
<text text-anchor="start" x="347.182" y="-207.3" font-family="Times,serif" font-size="14.00">created_at :datetime</text>
<text text-anchor="start" x="347.182" y="-193.3" font-family="Times,serif" font-size="14.00">updated_at :datetime</text>
</g>
<!-- Bid&#45;&gt;Offer -->
<g id="edge1" class="edge"><title>Bid&#45;&gt;Offer</title>
<path fill="none" stroke="#89c311" d="M480.136,-372.508C468.868,-356.185 457.003,-338.505 446.122,-321.831"/>
<ellipse fill="none" stroke="#89c311" cx="482.562" cy="-376.007" rx="4.00002" ry="4.00002"/>
<ellipse fill="#89c311" stroke="#89c311" cx="443.703" cy="-318.108" rx="4.00002" ry="4.00002"/>
</g>
<!-- Rating -->
<g id="node7" class="node"><title>Rating</title>
<path fill="none" stroke="black" d="M502.182,-179.5C502.182,-179.5 611.193,-179.5 611.193,-179.5 617.193,-179.5 623.193,-185.5 623.193,-191.5 623.193,-191.5 623.193,-309.5 623.193,-309.5 623.193,-315.5 617.193,-321.5 611.193,-321.5 611.193,-321.5 502.182,-321.5 502.182,-321.5 496.182,-321.5 490.182,-315.5 490.182,-309.5 490.182,-309.5 490.182,-191.5 490.182,-191.5 490.182,-185.5 496.182,-179.5 502.182,-179.5"/>
<text text-anchor="middle" x="556.688" y="-306.3" font-family="Times,serif" font-size="14.00">Rating</text>
<polyline fill="none" stroke="black" points="490.182,-299.5 623.193,-299.5 "/>
<text text-anchor="start" x="498.182" y="-284.3" font-family="Times,serif" font-size="14.00">id :integer</text>
<text text-anchor="start" x="498.182" y="-270.3" font-family="Times,serif" font-size="14.00">score :integer</text>
<text text-anchor="start" x="498.182" y="-256.3" font-family="Times,serif" font-size="14.00">description :text</text>
<text text-anchor="start" x="498.182" y="-242.3" font-family="Times,serif" font-size="14.00">author_id :integer</text>
<text text-anchor="start" x="498.182" y="-228.3" font-family="Times,serif" font-size="14.00">recipient_id :integer</text>
<text text-anchor="start" x="498.182" y="-214.3" font-family="Times,serif" font-size="14.00">bid_id :integer</text>
<text text-anchor="start" x="498.182" y="-200.3" font-family="Times,serif" font-size="14.00">created_at :datetime</text>
<text text-anchor="start" x="498.182" y="-186.3" font-family="Times,serif" font-size="14.00">updated_at :datetime</text>
</g>
<!-- Bid&#45;&gt;Rating -->
<g id="edge2" class="edge"><title>Bid&#45;&gt;Rating</title>
<path fill="none" stroke="#5ba9ed" d="M538.493,-371.065C540.43,-358.337 542.485,-344.834 544.489,-331.661"/>
<ellipse fill="none" stroke="#5ba9ed" cx="537.843" cy="-375.34" rx="4.00001" ry="4.00001"/>
<polygon fill="#5ba9ed" stroke="#5ba9ed" points="544.505,-331.556 550.459,-322.347 545.258,-326.613 546.01,-321.669 546.01,-321.669 546.01,-321.669 545.258,-326.613 541.561,-320.992 544.505,-331.556 544.505,-331.556"/>
</g>
<!-- Category -->
<g id="node3" class="node"><title>Category</title>
<path fill="none" stroke="black" d="M237.182,-593.5C237.182,-593.5 346.193,-593.5 346.193,-593.5 352.193,-593.5 358.193,-599.5 358.193,-605.5 358.193,-605.5 358.193,-667.5 358.193,-667.5 358.193,-673.5 352.193,-679.5 346.193,-679.5 346.193,-679.5 237.182,-679.5 237.182,-679.5 231.182,-679.5 225.182,-673.5 225.182,-667.5 225.182,-667.5 225.182,-605.5 225.182,-605.5 225.182,-599.5 231.182,-593.5 237.182,-593.5"/>
<text text-anchor="middle" x="291.688" y="-664.3" font-family="Times,serif" font-size="14.00">Category</text>
<polyline fill="none" stroke="black" points="225.182,-657.5 358.193,-657.5 "/>
<text text-anchor="start" x="233.182" y="-642.3" font-family="Times,serif" font-size="14.00">id :integer</text>
<text text-anchor="start" x="233.182" y="-628.3" font-family="Times,serif" font-size="14.00">name :string</text>
<text text-anchor="start" x="233.182" y="-614.3" font-family="Times,serif" font-size="14.00">created_at :datetime</text>
<text text-anchor="start" x="233.182" y="-600.3" font-family="Times,serif" font-size="14.00">updated_at :datetime</text>
</g>
<!-- Product -->
<g id="node6" class="node"><title>Product</title>
<path fill="none" stroke="black" d="M263.182,-358.5C263.182,-358.5 372.193,-358.5 372.193,-358.5 378.193,-358.5 384.193,-364.5 384.193,-370.5 384.193,-370.5 384.193,-502.5 384.193,-502.5 384.193,-508.5 378.193,-514.5 372.193,-514.5 372.193,-514.5 263.182,-514.5 263.182,-514.5 257.182,-514.5 251.182,-508.5 251.182,-502.5 251.182,-502.5 251.182,-370.5 251.182,-370.5 251.182,-364.5 257.182,-358.5 263.182,-358.5"/>
<text text-anchor="middle" x="317.688" y="-499.3" font-family="Times,serif" font-size="14.00">Product</text>
<polyline fill="none" stroke="black" points="251.182,-492.5 384.193,-492.5 "/>
<text text-anchor="start" x="259.182" y="-477.3" font-family="Times,serif" font-size="14.00">id :integer</text>
<text text-anchor="start" x="259.182" y="-463.3" font-family="Times,serif" font-size="14.00">name :string</text>
<text text-anchor="start" x="259.182" y="-449.3" font-family="Times,serif" font-size="14.00">image_url :text</text>
<text text-anchor="start" x="259.182" y="-435.3" font-family="Times,serif" font-size="14.00">description :text</text>
<text text-anchor="start" x="259.182" y="-421.3" font-family="Times,serif" font-size="14.00">condition :string</text>
<text text-anchor="start" x="259.182" y="-407.3" font-family="Times,serif" font-size="14.00">user_id :integer</text>
<text text-anchor="start" x="259.182" y="-393.3" font-family="Times,serif" font-size="14.00">category_id :integer</text>
<text text-anchor="start" x="259.182" y="-379.3" font-family="Times,serif" font-size="14.00">created_at :datetime</text>
<text text-anchor="start" x="259.182" y="-365.3" font-family="Times,serif" font-size="14.00">updated_at :datetime</text>
</g>
<!-- Category&#45;&gt;Product -->
<g id="edge3" class="edge"><title>Category&#45;&gt;Product</title>
<path fill="none" stroke="#df019d" d="M298.314,-585.042C300.725,-566.676 303.526,-545.348 306.235,-524.714"/>
<ellipse fill="none" stroke="#df019d" cx="297.786" cy="-589.058" rx="4.00001" ry="4.00001"/>
<polygon fill="#df019d" stroke="#df019d" points="306.254,-524.57 312.018,-515.241 306.905,-519.613 307.556,-514.655 307.556,-514.655 307.556,-514.655 306.905,-519.613 303.095,-514.07 306.254,-524.57 306.254,-524.57"/>
</g>
<!-- Listing -->
<g id="node4" class="node"><title>Listing</title>
<path fill="none" stroke="black" d="M351.182,-0.5C351.182,-0.5 460.193,-0.5 460.193,-0.5 466.193,-0.5 472.193,-6.5 472.193,-12.5 472.193,-12.5 472.193,-130.5 472.193,-130.5 472.193,-136.5 466.193,-142.5 460.193,-142.5 460.193,-142.5 351.182,-142.5 351.182,-142.5 345.182,-142.5 339.182,-136.5 339.182,-130.5 339.182,-130.5 339.182,-12.5 339.182,-12.5 339.182,-6.5 345.182,-0.5 351.182,-0.5"/>
<text text-anchor="middle" x="405.688" y="-127.3" font-family="Times,serif" font-size="14.00">Listing</text>
<polyline fill="none" stroke="black" points="339.182,-120.5 472.193,-120.5 "/>
<text text-anchor="start" x="347.182" y="-105.3" font-family="Times,serif" font-size="14.00">id :integer</text>
<text text-anchor="start" x="347.182" y="-91.3" font-family="Times,serif" font-size="14.00">max_price :float</text>
<text text-anchor="start" x="347.182" y="-77.3" font-family="Times,serif" font-size="14.00">accept_price :float</text>
<text text-anchor="start" x="347.182" y="-63.3" font-family="Times,serif" font-size="14.00">user_id :integer</text>
<text text-anchor="start" x="347.182" y="-49.3" font-family="Times,serif" font-size="14.00">product_id :integer</text>
<text text-anchor="start" x="347.182" y="-35.3" font-family="Times,serif" font-size="14.00">expires_at :datetime</text>
<text text-anchor="start" x="347.182" y="-21.3" font-family="Times,serif" font-size="14.00">created_at :datetime</text>
<text text-anchor="start" x="347.182" y="-7.3" font-family="Times,serif" font-size="14.00">updated_at :datetime</text>
</g>
<!-- Listing&#45;&gt;Bid -->
<g id="edge4" class="edge"><title>Listing&#45;&gt;Bid</title>
<path fill="none" stroke="#2dc9af" d="M480.171,-85.8149C532.688,-99.5088 599.378,-126.579 632.688,-179 666.773,-232.642 655.722,-262.766 632.688,-322 625.718,-339.924 614.449,-356.739 601.849,-371.652"/>
<ellipse fill="none" stroke="#2dc9af" cx="476.081" cy="-84.786" rx="4.00001" ry="4.00001"/>
<polygon fill="#2dc9af" stroke="#2dc9af" points="601.755,-371.76 591.774,-376.304 598.455,-375.517 595.155,-379.273 595.155,-379.273 595.155,-379.273 598.455,-375.517 598.536,-382.243 601.755,-371.76 601.755,-371.76"/>
</g>
<!-- Listing&#45;&gt;Offer -->
<g id="edge5" class="edge"><title>Listing&#45;&gt;Offer</title>
<path fill="none" stroke="#81dfd8" d="M412.397,-150.699C412.464,-159.131 412.448,-167.69 412.35,-176.063"/>
<ellipse fill="none" stroke="#81dfd8" cx="412.352" cy="-146.663" rx="4" ry="4"/>
<polygon fill="#81dfd8" stroke="#81dfd8" points="412.35,-176.1 407.691,-186.027 412.27,-181.1 412.19,-186.099 412.19,-186.099 412.19,-186.099 412.27,-181.1 416.69,-186.17 412.35,-176.1 412.35,-176.1"/>
</g>
<!-- Offer&#45;&gt;Bid -->
<g id="edge6" class="edge"><title>Offer&#45;&gt;Bid</title>
<path fill="none" stroke="#297cb9" d="M458.978,-321.385C470.484,-338.189 482.373,-356.039 493.021,-372.508"/>
<ellipse fill="none" stroke="#297cb9" cx="456.686" cy="-318.05" rx="4.00002" ry="4.00002"/>
<ellipse fill="#297cb9" stroke="#297cb9" cx="495.224" cy="-375.931" rx="4.00002" ry="4.00002"/>
</g>
<!-- Offer&#45;&gt;Listing -->
<g id="edge7" class="edge"><title>Offer&#45;&gt;Listing</title>
<path fill="none" stroke="#267145" d="M399.051,-178.089C398.94,-169.784 398.91,-161.271 398.963,-152.857"/>
<ellipse fill="none" stroke="#267145" cx="399.118" cy="-182.099" rx="4" ry="4"/>
<polygon fill="#267145" stroke="#267145" points="398.965,-152.663 403.568,-142.71 399.017,-147.663 399.068,-142.664 399.068,-142.664 399.068,-142.664 399.017,-147.663 394.568,-142.617 398.965,-152.663 398.965,-152.663"/>
</g>
<!-- Product&#45;&gt;Listing -->
<g id="edge8" class="edge"><title>Product&#45;&gt;Listing</title>
<path fill="none" stroke="#61b291" d="M309.781,-350.386C307.918,-299.335 310.688,-233.883 329.688,-179 332.92,-169.663 337.249,-160.424 342.207,-151.519"/>
<ellipse fill="none" stroke="#61b291" cx="309.951" cy="-354.455" rx="4" ry="4"/>
<polygon fill="#61b291" stroke="#61b291" points="342.3,-151.361 351.24,-145.011 344.829,-147.048 347.358,-142.735 347.358,-142.735 347.358,-142.735 344.829,-147.048 343.476,-140.458 342.3,-151.361 342.3,-151.361"/>
</g>
<!-- Product&#45;&gt;Offer -->
<g id="edge9" class="edge"><title>Product&#45;&gt;Offer</title>
<path fill="none" stroke="#eb392a" d="M358.232,-350.725C362.549,-341.699 366.91,-332.58 371.149,-323.718"/>
<ellipse fill="none" stroke="#eb392a" cx="356.351" cy="-354.659" rx="4.00002" ry="4.00002"/>
<polygon fill="#eb392a" stroke="#eb392a" points="371.199,-323.612 379.573,-316.533 373.356,-319.102 375.514,-314.591 375.514,-314.591 375.514,-314.591 373.356,-319.102 371.454,-312.649 371.199,-323.612 371.199,-323.612"/>
</g>
<!-- User -->
<g id="node8" class="node"><title>User</title>
<path fill="none" stroke="black" d="M388.276,-551.5C388.276,-551.5 505.1,-551.5 505.1,-551.5 511.1,-551.5 517.1,-557.5 517.1,-563.5 517.1,-563.5 517.1,-709.5 517.1,-709.5 517.1,-715.5 511.1,-721.5 505.1,-721.5 505.1,-721.5 388.276,-721.5 388.276,-721.5 382.276,-721.5 376.276,-715.5 376.276,-709.5 376.276,-709.5 376.276,-563.5 376.276,-563.5 376.276,-557.5 382.276,-551.5 388.276,-551.5"/>
<text text-anchor="middle" x="446.688" y="-706.3" font-family="Times,serif" font-size="14.00">User</text>
<polyline fill="none" stroke="black" points="376.276,-699.5 517.1,-699.5 "/>
<text text-anchor="start" x="384.276" y="-684.3" font-family="Times,serif" font-size="14.00">id :integer</text>
<text text-anchor="start" x="384.276" y="-670.3" font-family="Times,serif" font-size="14.00">username :string</text>
<text text-anchor="start" x="384.276" y="-656.3" font-family="Times,serif" font-size="14.00">password_hash :string</text>
<text text-anchor="start" x="384.276" y="-642.3" font-family="Times,serif" font-size="14.00">name :string</text>
<text text-anchor="start" x="384.276" y="-628.3" font-family="Times,serif" font-size="14.00">email :string</text>
<text text-anchor="start" x="384.276" y="-614.3" font-family="Times,serif" font-size="14.00">avatar :text</text>
<text text-anchor="start" x="384.276" y="-600.3" font-family="Times,serif" font-size="14.00">bio :text</text>
<text text-anchor="start" x="384.276" y="-586.3" font-family="Times,serif" font-size="14.00">rating :integer</text>
<text text-anchor="start" x="384.276" y="-572.3" font-family="Times,serif" font-size="14.00">created_at :datetime</text>
<text text-anchor="start" x="384.276" y="-558.3" font-family="Times,serif" font-size="14.00">updated_at :datetime</text>
</g>
<!-- User&#45;&gt;Listing -->
<g id="edge10" class="edge"><title>User&#45;&gt;Listing</title>
<path fill="none" stroke="#083e00" d="M524.105,-591.662C553.178,-571.691 584.128,-545.626 604.688,-515 688.912,-389.538 740.101,-305.003 656.688,-179 618.216,-120.885 540.973,-94.39 482.281,-82.3666"/>
<ellipse fill="none" stroke="#083e00" cx="520.472" cy="-594.11" rx="4.00002" ry="4.00002"/>
<polygon fill="#083e00" stroke="#083e00" points="482.108,-82.333 473.152,-76.0048 477.2,-81.3774 472.292,-80.4219 472.292,-80.4219 472.292,-80.4219 477.2,-81.3774 471.432,-84.8389 482.108,-82.333 482.108,-82.333"/>
</g>
<!-- User&#45;&gt;Offer -->
<g id="edge11" class="edge"><title>User&#45;&gt;Offer</title>
<path fill="none" stroke="#e08b32" d="M436.83,-543.173C429.682,-476.228 420.146,-386.913 413.517,-324.83"/>
<ellipse fill="none" stroke="#e08b32" cx="437.265" cy="-547.252" rx="4" ry="4"/>
<polygon fill="#e08b32" stroke="#e08b32" points="413.5,-324.667 416.913,-314.245 412.969,-319.695 412.438,-314.723 412.438,-314.723 412.438,-314.723 412.969,-319.695 407.964,-315.201 413.5,-324.667 413.5,-324.667"/>
</g>
<!-- User&#45;&gt;Product -->
<g id="edge12" class="edge"><title>User&#45;&gt;Product</title>
<path fill="none" stroke="#853df4" d="M387.34,-544.408C382.802,-537.443 378.23,-530.426 373.715,-523.495"/>
<ellipse fill="none" stroke="#853df4" cx="389.61" cy="-547.892" rx="4.00002" ry="4.00002"/>
<polygon fill="#853df4" stroke="#853df4" points="373.491,-523.152 371.803,-512.317 370.762,-518.963 368.033,-514.774 368.033,-514.774 368.033,-514.774 370.762,-518.963 364.262,-517.23 373.491,-523.152 373.491,-523.152"/>
</g>
</g>
</svg>
